<?xml version="1.0" encoding="utf-8"?>
<!-- Generator: Adobe Illustrator 22.1.0, SVG Export Plug-In . SVG Version: 6.00 Build 0)  -->
<svg version="1.1" id="Layer_1" xmlns="http://www.w3.org/2000/svg" xmlns:xlink="http://www.w3.org/1999/xlink" x="0px" y="0px"
	 viewBox="0 0 41.3 48.1" style="enable-background:new 0 0 41.3 48.1;" xml:space="preserve">
<style type="text/css">
	.st0{fill:#FFFFFF;}
</style>
<path class="st0" d="M39.4,42l-2.2-5.8H18.3l-2.2,6c-0.9,2.3-1.6,3.9-2.2,4.7c-0.6,0.8-1.6,1.2-3,1.2c-1.2,0-2.2-0.4-3.1-1.3
	c-0.9-0.9-1.4-1.8-1.4-2.9c0-0.6,0.1-1.3,0.3-2s0.6-1.6,1-2.8L19.6,8.9c0.3-0.9,0.7-1.9,1.2-3.1c0.5-1.2,1-2.2,1.5-3
	c0.5-0.8,1.2-1.5,2.1-1.9c0.9-0.5,2-0.7,3.2-0.7c1.3,0,2.4,0.2,3.3,0.7s1.6,1.1,2.1,1.9c0.5,0.8,1,1.6,1.4,2.5
	c0.4,0.9,0.8,2.1,1.4,3.6l12.1,30c1,2.3,1.4,3.9,1.4,5c0,1.1-0.4,2.1-1.3,3c-0.9,0.9-2,1.3-3.2,1.3c-0.7,0-1.4-0.1-1.9-0.4
	c-0.5-0.3-1-0.6-1.3-1.1c-0.4-0.5-0.7-1.2-1.2-2.1S39.7,42.7,39.4,42z M20.8,29.1h13.9l-7-19.2L20.8,29.1z"/>
</svg>
