<?xml version="1.0" encoding="utf-8"?>
<!-- Generator: Adobe Illustrator 21.1.0, SVG Export Plug-In . SVG Version: 6.00 Build 0)  -->
<svg version="1.1" id="Layer_1" xmlns="http://www.w3.org/2000/svg" xmlns:xlink="http://www.w3.org/1999/xlink" x="0px" y="0px"
	 viewBox="0 0 450 48" style="enable-background:new 0 0 450 48;" xml:space="preserve">
<style type="text/css">
	.st0{fill:#FFFFFF;}
</style>
<!-- A -->
<path class="st0" d="M35.4,42l-2.2-5.8H14.3l-2.2,6c-0.9,2.3-1.6,3.9-2.2,4.7c-0.6,0.8-1.6,1.2-3,1.2c-1.2,0-2.2-0.4-3.1-1.3
	c-0.9-0.9-1.4-1.8-1.4-2.9c0-0.6,0.1-1.3,0.3-2s0.6-1.6,1-2.8L15.6,8.9c0.3-0.9,0.7-1.9,1.2-3.1c0.5-1.2,1-2.2,1.5-3
	c0.5-0.8,1.2-1.5,2.1-1.9c0.9-0.5,2-0.7,3.2-0.7c1.3,0,2.4,0.2,3.3,0.7s1.6,1.1,2.1,1.9c0.5,0.8,1,1.6,1.4,2.5
	c0.4,0.9,0.8,2.1,1.4,3.6l12.1,30c1,2.3,1.4,3.9,1.4,5c0,1.1-0.4,2.1-1.3,3c-0.9,0.9-2,1.3-3.2,1.3c-0.7,0-1.4-0.1-1.9-0.4
	c-0.5-0.3-1-0.6-1.3-1.1c-0.4-0.5-0.7-1.2-1.2-2.1S35.7,42.7,35.4,42z M16.8,29.1h13.9l-7-19.2L16.8,29.1z"/>
<!-- P -->
<path class="st0" d="M81.3,27.4H78v14.9c0,2-0.4,3.4-1.3,4.3c-0.9,0.9-2,1.4-3.4,1.4c-1.5,0-2.7-0.5-3.5-1.5
	c-0.8-1-1.2-2.4-1.2-4.3V6.6c0-2,0.5-3.5,1.4-4.4c0.9-0.9,2.4-1.4,4.4-1.4h15.3c2.1,0,3.9,0.1,5.4,0.3c1.5,0.2,2.9,0.5,4.1,1.1
	c1.5,0.6,2.7,1.5,3.9,2.6c1.1,1.1,2,2.5,2.5,4c0.6,1.5,0.9,3.1,0.9,4.8c0,3.5-1,6.2-2.9,8.3c-2,2.1-4.9,3.5-8.9,4.4v0.3
	c0,1.8-0.4,3.1-1.2,4c-0.8,0.9-1.9,1.4-3.2,1.4c-1.3,0-2.4-0.5-3.2-1.4c-0.8-0.9-1.2-2.3-1.2-4V27.7
	C80.8,27.6,81,27.5,81.3,27.4z M86.7,7.9H78v12.8h8.4c2.3,0,4.2-0.2,5.7-0.6c1.5-0.4,2.7-1.1,3.5-2c0.8-0.9,1.2-2.2,1.2-3.9
	c0-1.3-0.3-2.4-1-3.4c-0.7-1-1.6-1.7-2.7-2.2C92.1,8.1,89.9,7.9,86.7,7.9z"/>
<!-- O -->
<path class="st0" d="M151.5,0c4.8,0,8.9,1,12.4,2.9c3.5,2,6.1,4.7,7.8,8.3s2.7,7.8,2.7,12.7c0,3.6-0.5,6.9-1.5,9.8
	c-1,2.9-2.4,5.5-4.4,7.6c-1.9,2.2-4.3,3.8-7.2,4.9c-2.8,1.1-6.1,1.7-9.7,1.7c-3.6,0-6.9-0.6-9.8-1.8c-2.9-1.2-5.3-2.8-7.2-5
	c-1.9-2.1-3.4-4.7-4.4-7.7c-1-3-1.5-6.2-1.5-9.7c0-3.6,0.5-6.8,1.5-9.8c1-3,2.5-5.5,4.4-7.6c1.9-2.1,4.3-3.7,7.1-4.8
	C144.8,0.6,147.9,0,151.5,0z M164.9,23.9c0-3.4-0.5-6.3-1.6-8.8c-1.1-2.5-2.7-4.4-4.7-5.7c-2-1.3-4.4-1.9-7-1.9
	c-1.9,0-3.6,0.4-5.2,1.1s-3,1.7-4.1,3.1c-1.2,1.4-2.1,3.1-2.7,5.2c-0.7,2.1-1,4.5-1,7.1c0,2.6,0.3,5,1,7.2
	c0.7,2.1,1.6,3.9,2.8,5.3c1.2,1.4,2.6,2.5,4.2,3.2c1.6,0.7,3.3,1,5.2,1c2.4,0,4.6-0.6,6.6-1.8c2-1.2,3.6-3.1,4.8-5.6
	C164.3,30.6,164.9,27.6,164.9,23.9z"/>
<!-- T -->
<path class="st0" d="M220.2,7.9h-12.5c-1.8,0-3.1-0.4-4-1.2c-0.9-0.8-1.3-1.8-1.3-3.1c0-1.4,0.4-2.4,1.3-3.2
	c0.9-0.8,2.2-1.2,4-1.2h33.4c1.8,0,3.1,0.4,4,1.2c0.9,0.8,1.3,1.8,1.3,3.2c0,1.3-0.4,2.3-1.3,3.1c-0.9,0.8-2.2,1.2-4,1.2h-12.5
	v34.4c0,2-0.4,3.4-1.3,4.3c-0.9,0.9-2,1.4-3.4,1.4c-1.5,0-2.7-0.5-3.5-1.5c-0.8-1-1.2-2.4-1.2-4.3V7.9z"/>
<!-- E -->
<path class="st0" d="M286.8,0.8h25.4c1.8,0,3.1,0.4,4,1.2c0.9,0.8,1.3,1.8,1.3,3.1c0,1.4-0.4,2.4-1.3,3.2c-0.9,0.8-2.2,1.2-4,1.2
	h-17v11.8h14.2c1.8,0,3.1,0.4,4,1.2c0.9,0.8,1.3,1.8,1.3,3.1c0,1.4-0.4,2.4-1.3,3.2c-0.9,0.8-2.2,1.2-4,1.2h-14.2v12.7h17
	c1.8,0,3.1,0.4,4,1.2c0.9,0.8,1.3,1.8,1.3,3.1c0,1.4-0.4,2.4-1.3,3.2c-0.9,0.8-2.2,1.2-4,1.2h-25.4c-2,0-3.5-0.5-4.4-1.4
	c-0.9-0.9-1.4-2.4-1.4-4.4V6.6c0-2,0.5-3.5,1.4-4.4C283.3,1.3,284.8,0.8,286.8,0.8z"/>
<!-- C -->
<path class="st0" d="M363.4,32.6c0,1.5-0.4,3.1-1.1,4.8c-0.7,1.7-1.9,3.4-3.4,5.1c-1.6,1.7-3.6,3-6,4c-2.4,1-5.3,1.6-8.5,1.6
	c-2.4,0-4.7-0.2-6.7-0.7c-2-0.5-3.8-1.2-5.5-2.2c-1.6-1-3.1-2.3-4.5-3.9c-1.2-1.5-2.3-3.1-3.1-4.9s-1.5-3.7-1.9-5.8
	c-0.4-2-0.6-4.2-0.6-6.5c0-3.7,0.5-7.1,1.6-10c1.1-3,2.6-5.5,4.7-7.6c2-2.1,4.4-3.7,7.1-4.8c2.7-1.1,5.6-1.6,8.6-1.6
	c3.8,0,7.1,0.7,10,2.2s5.2,3.4,6.7,5.6c1.6,2.2,2.3,4.3,2.3,6.3c0,1.1-0.4,2-1.1,2.9c-0.8,0.8-1.7,1.2-2.8,1.2
	c-1.2,0-2.1-0.3-2.7-0.9c-0.6-0.6-1.3-1.6-2-2.9c-1.2-2.3-2.7-4-4.3-5.2c-1.7-1.1-3.7-1.7-6.1-1.7c-3.9,0-6.9,1.5-9.2,4.4
	c-2.3,2.9-3.4,7.1-3.4,12.5c0,3.6,0.5,6.6,1.5,9c1,2.4,2.4,4.2,4.3,5.4c1.9,1.2,4,1.8,6.5,1.8c2.7,0,5-0.7,6.9-2s3.3-3.3,4.2-5.9
	c0.4-1.2,0.9-2.2,1.5-3c0.6-0.8,1.5-1.2,2.9-1.2c1.1,0,2.1,0.4,2.9,1.2C363,30.4,363.4,31.4,363.4,32.6z"/>
<!-- H -->
<path class="st0" d="M410.8,0.8c2,0,3.5,0.5,4.4,1.4c0.9,0.9,1.4,2.4,1.4,4.4v15.7h16.2V6.6c0-2,0.5-3.5,1.4-4.4
	c0.9-0.9,2.4-1.4,4.4-1.4c2,0,3.5,0.5,4.4,1.4c0.9,0.9,1.4,2.4,1.4,4.4v35.7c0,2-0.5,3.5-1.4,4.4c-0.9,0.9-2.4,1.4-4.4,1.4
	c-2,0-3.5-0.5-4.4-1.4c-0.9-0.9-1.4-2.4-1.4-4.4V29.5h-16.2v12.8c0,2-0.5,3.5-1.4,4.4c-0.9,0.9-2.4,1.4-4.4,1.4
	c-2,0-3.5-0.5-4.4-1.4c-0.9-0.9-1.4-2.4-1.4-4.4V6.6c0-2,0.5-3.5,1.4-4.4C407.3,1.3,408.8,0.8,410.8,0.8z"/>
</svg>
